<?xml version="1.0" standalone="no"?>
<!DOCTYPE svg PUBLIC "-//W3C//DTD SVG 20010904//EN"
 "http://www.w3.org/TR/2001/REC-SVG-20010904/DTD/svg10.dtd">
<svg version="1.0" xmlns="http://www.w3.org/2000/svg"
 width="512.000000pt" height="512.000000pt" viewBox="0 0 512.000000 512.000000"
 preserveAspectRatio="xMidYMid meet">
<metadata>
Created by potrace 1.14, written by Peter Selinger 2001-2017
</metadata>
<g transform="translate(0.000000,512.000000) scale(0.100000,-0.100000)"
fill="#000000" stroke="none">
<path d="M2527 5104 c-1 -1 -54 -4 -117 -7 -346 -18 -694 -112 -1011 -273
-492 -250 -910 -677 -1143 -1169 -94 -198 -183 -467 -211 -640 -4 -22 -9 -52
-11 -66 -22 -127 -31 -268 -29 -449 2 -113 6 -221 9 -240 3 -19 8 -55 11 -80
5 -38 23 -136 40 -215 50 -235 170 -531 303 -750 56 -91 167 -252 187 -270 6
-5 24 -28 40 -49 45 -62 262 -275 355 -349 288 -230 604 -390 950 -483 210
-56 339 -58 470 -7 189 74 321 222 371 415 16 66 18 118 19 538 0 255 4 467 8
471 4 3 30 12 57 18 246 60 490 262 612 506 34 67 69 166 78 217 3 18 10 49
14 69 13 59 14 671 1 719 -7 26 -27 58 -54 85 -50 49 -77 56 -216 57 l-90 1 0
274 c0 249 -2 278 -19 316 -35 76 -101 117 -188 117 -62 0 -118 -32 -158 -88
l-30 -44 -3 -287 -3 -288 -199 -1 -200 -1 0 274 c0 245 -2 278 -19 317 -33 76
-100 118 -190 118 -65 0 -137 -46 -168 -110 -22 -43 -23 -54 -23 -322 l0 -277
-108 0 c-119 1 -166 -12 -214 -58 -57 -55 -60 -76 -55 -454 2 -189 7 -357 11
-374 55 -234 128 -370 280 -521 120 -119 306 -225 439 -249 l38 -7 -3 -467
c-3 -449 -4 -467 -23 -501 -32 -54 -95 -92 -158 -98 -104 -8 -390 84 -607 196
-592 307 -1020 886 -1135 1537 -24 134 -30 213 -30 390 1 163 7 249 25 346 6
30 13 65 15 79 11 58 16 77 41 164 171 597 604 1102 1170 1367 167 78 415 154
564 174 14 2 45 6 70 10 103 15 337 21 442 10 313 -32 552 -100 802 -226 106
-54 271 -157 346 -218 24 -20 56 -45 70 -56 123 -98 314 -314 419 -475 129
-197 251 -484 296 -695 40 -187 53 -317 50 -520 -5 -332 -68 -603 -210 -901
-50 -106 -170 -311 -195 -334 -3 -3 -24 -30 -47 -60 -103 -137 -255 -286 -399
-393 -49 -37 -94 -71 -100 -76 -27 -23 -218 -128 -309 -171 -109 -51 -147 -85
-166 -149 -25 -84 18 -189 95 -232 72 -41 130 -33 271 34 283 136 494 286 715
508 296 297 519 668 638 1064 35 117 69 259 77 330 4 28 8 57 10 65 12 44 20
187 20 355 0 165 -4 234 -20 355 -16 127 -60 314 -107 454 -82 246 -222 519
-353 687 -11 14 -27 36 -35 49 -16 23 -18 26 -90 111 -52 62 -202 214 -275
278 -141 125 -354 266 -534 356 -219 108 -488 197 -697 229 -22 4 -52 9 -69
11 -93 16 -397 37 -408 29z m601 -2353 c18 -1 16 -344 -2 -433 -96 -450 -658
-607 -979 -273 -121 125 -157 245 -157 520 l0 184 43 3 c33 2 1045 1 1095 -1z"/>
</g>
</svg>
